<?xml version="1.0" encoding="UTF-8" standalone="no"?>
<!DOCTYPE svg PUBLIC "-//W3C//DTD SVG 1.1//EN" "http://www.w3.org/Graphics/SVG/1.1/DTD/svg11.dtd">
<svg version="1.1" xmlns="http://www.w3.org/2000/svg" xmlns:xlink="http://www.w3.org/1999/xlink" preserveAspectRatio="xMidYMid meet" viewBox="0 0 640 640"><defs><path d="M568.77 583.72L568.77 42.88L388.79 42.88L388.79 0L564.96 0L640 0L640 73.43L640 583.72L568.77 583.72Z" id="bhwsELsG9"></path><path d="M71.23 56.28L71.23 597.12L251.21 597.12L251.21 640L75.04 640L0 640L0 566.57L0 56.28L71.23 56.28Z" id="h1XxnXNhx"></path><path d="M479.23 158.32L506.57 169.2L529.66 183.85L547.88 202.17L560.61 224.05L561.87 227.45L563.02 230.87L564.06 234.31L564.98 237.78L565.78 241.27L566.45 244.78L566.98 248.3L567.36 251.82L567.6 255.36L567.68 258.89L533.28 271.28L498.9 283.66L464.55 296.05L430.23 308.46L395.92 320.87L361.63 333.3L327.36 345.75L293.09 358.22L258.83 370.72L224.57 383.25L224.03 383.79L226.65 387.97L229.61 391.83L232.88 395.39L236.44 398.65L240.27 401.61L244.35 404.28L248.64 406.67L253.14 408.78L257.81 410.62L262.63 412.19L275.32 415.28L288.18 416.84L301.08 416.96L313.9 415.68L326.53 413.07L338.82 409.18L350.67 404.09L361.94 397.85L372.51 390.53L382.26 382.18L385.65 378.86L388.98 375.36L392.23 371.65L395.41 367.74L398.5 363.62L401.52 359.29L404.45 354.75L407.3 350L410.05 345.03L412.71 339.83L562.24 295.88L554.91 314.9L544.74 333.91L531.88 352.7L516.46 371.11L498.62 388.94L478.5 406.02L456.23 422.16L431.95 437.18L405.8 450.89L377.91 463.12L338.01 476.83L298.67 486.21L260.49 491.34L224.1 492.32L190.11 489.25L159.14 482.22L131.8 471.33L108.71 456.68L90.49 438.37L77.76 416.48L71.48 392.07L71.65 366.46L77.89 340.13L89.84 313.58L107.12 287.3L129.36 261.8L156.18 237.57L187.22 215.1L222.1 194.88L260.46 177.42L300.35 163.7L339.7 154.33L377.88 149.2L414.27 148.22L448.26 151.29L479.23 158.32ZM328.43 225.13L311.89 228.75L296 234.1L280.96 241.11L266.96 249.71L254.21 259.83L242.88 271.4L233.19 284.34L225.33 298.59L219.49 314.07L215.87 330.72L235.74 323.64L255.56 316.57L275.34 309.48L295.09 302.38L314.83 295.28L334.57 288.15L354.33 281.01L374.11 273.84L393.93 266.65L413.8 259.43L407.66 250.25L400.74 242.59L393.13 236.35L384.92 231.45L376.21 227.81L367.09 225.31L357.66 223.89L348.01 223.44L338.23 223.89L328.43 225.13Z" id="e1z7hyJQ6N"></path></defs><g visibility="inherit"><g visibility="inherit"><g visibility="inherit"><use xlink:href="#bhwsELsG9" opacity="1" fill="#006cb5" fill-opacity="1"></use><g><use xlink:href="#bhwsELsG9" opacity="1" fill-opacity="0" stroke="#000000" stroke-width="1" stroke-opacity="0"></use></g></g><g visibility="inherit"><use xlink:href="#h1XxnXNhx" opacity="1" fill="#006cb5" fill-opacity="1"></use><g><use xlink:href="#h1XxnXNhx" opacity="1" fill-opacity="0" stroke="#000000" stroke-width="1" stroke-opacity="0"></use></g></g><g visibility="inherit"><use xlink:href="#e1z7hyJQ6N" opacity="1" fill="#ee741d" fill-opacity="1"></use><g><use xlink:href="#e1z7hyJQ6N" opacity="1" fill-opacity="0" stroke="#000000" stroke-width="1" stroke-opacity="0"></use></g></g></g></g></svg>